# xmcd
#
# Track frame offsets:
#	150
#	16294
#	28951
#	41256
#	54712
#	69349
#	80248
#	91004
#	103406
#	117362
#	130315
#	147744
#
# Disc length: 2203 seconds
# Revision: 1
# Processed by: cddbd v1.5.2PL0 Copyright (c) Steve Scherf et al.
# Submitted via: dBpowerAMP V12.0
#
DISCID=ad08990c
DTITLE=Halden Wofford and the Hi*Beams - Midnight Rodeo
DYEAR=2006
DGENRE=Country
TTITLE0=Don't Care If I Do
TTITLE1=Betty Boop
TTITLE2=Cajun Fair
TTITLE3=Blues Fallin' Down
TTITLE4=Road to Old Mexico
TTITLE5=My Baby Hates Honky Tonks
TTITLE6=Love Police
TTITLE7=Jealousy
TTITLE8=Hippie in My House
TTITLE9=Flatfooted
TTITLE10=Midnight Rodeo
TTITLE11=Floyd Hill Whiteout
EXTD=
EXTT0=
EXTT1=
EXTT2=
EXTT3=
EXTT4=
EXTT5=
EXTT6=
EXTT7=
EXTT8=
EXTT9=
EXTT10=
EXTT11=
PLAYORDER=
